<?xml version="1.0" encoding="UTF-8" standalone="no"?>
<!-- Created with Inkscape (http://www.inkscape.org/) -->

<svg
   xmlns:dc="http://purl.org/dc/elements/1.1/"
   xmlns:cc="http://creativecommons.org/ns#"
   xmlns:rdf="http://www.w3.org/1999/02/22-rdf-syntax-ns#"
   xmlns:svg="http://www.w3.org/2000/svg"
   xmlns="http://www.w3.org/2000/svg"
   xmlns:sodipodi="http://sodipodi.sourceforge.net/DTD/sodipodi-0.dtd"
   xmlns:inkscape="http://www.inkscape.org/namespaces/inkscape"
   width="841mm"
   height="594mm"
   viewBox="0 0 841 594"
   version="1.1"
   id="svg8"
   sodipodi:docname="AV_Logo.transparent_bg.svg"
   inkscape:version="0.92.4 (5da689c313, 2019-01-14)">
  <defs
     id="defs2" />
  <sodipodi:namedview
     id="base"
     pagecolor="#ffffff"
     bordercolor="#666666"
     borderopacity="1.0"
     inkscape:pageopacity="0.0"
     inkscape:pageshadow="2"
     inkscape:zoom="0.175"
     inkscape:cx="1526.8855"
     inkscape:cy="329.69077"
     inkscape:document-units="mm"
     inkscape:current-layer="layer1"
     showgrid="false"
     inkscape:snap-bbox="true"
     inkscape:window-width="1920"
     inkscape:window-height="1129"
     inkscape:window-x="-8"
     inkscape:window-y="-8"
     inkscape:window-maximized="1" />
  <metadata
     id="metadata5">
    <rdf:RDF>
      <cc:Work
         rdf:about="">
        <dc:format>image/svg+xml</dc:format>
        <dc:type
           rdf:resource="http://purl.org/dc/dcmitype/StillImage" />
        <dc:title></dc:title>
      </cc:Work>
    </rdf:RDF>
  </metadata>
  <g
     inkscape:label="Layer 1"
     inkscape:groupmode="layer"
     id="layer1"
     transform="translate(0,297)">
    <path
       inkscape:connector-curvature="0"
       id="path827"
       style="fill:none;fill-opacity:1;fill-rule:nonzero;stroke:none;stroke-width:0.27394935"
       d="M 851,307 H -10 v -614 h 861 v 614" />
    <g
       id="g1080"
       transform="translate(13.854696,-1.984525)">
      <path
         d="m 159.52783,-61.679997 h 11.87213 l -5.93708,-26.086601 z m 21.61756,43.242349 -6.63875,-29.693336 h -18.08571 l -6.64305,29.693336 h -13.70694 l 24.02257,-106.226702 h 10.59665 l 23.81485,104.081668 0.49055,2.145034 m -0.49055,-2.145034 1.02704,3.966503 25.46685,111.458054 17.94497,-71.061948 h 13.9244 L 226.3108,129.58306 H 215.68768 L 181.14539,-18.437648"
         style="fill:#ffffff;fill-opacity:1;fill-rule:nonzero;stroke:none;stroke-width:0.22626942"
         id="path831"
         inkscape:connector-curvature="0" />
      <path
         d="m 159.52783,-61.679997 h 11.87213 l -5.93708,-26.086601 z m 21.61756,43.242349 -6.63875,-29.693336 h -18.08571 l -6.64305,29.693336 h -13.70694 l 24.02257,-106.226702 h 10.59665 l 23.81485,104.081668 0.49055,2.145034 m -0.49055,-2.145034 1.02704,3.966503 25.46685,111.458054 17.94497,-71.061948 h 13.9244 L 226.3108,129.58306 H 215.68768 L 181.14539,-18.437648"
         style="fill:none;stroke:#181a21;stroke-width:0.22626942;stroke-linecap:butt;stroke-linejoin:miter;stroke-miterlimit:2;stroke-dasharray:none;stroke-opacity:1"
         id="path833"
         inkscape:connector-curvature="0" />
      <path
         d="m 237.7356,-19.532792 -25.43314,-64.280879 v 64.280879 h -13.2836 V -125.75723 h 11.16413 l 25.43495,64.285401 v -64.285401 h 13.42411 V -19.532792 H 237.7356"
         style="fill:#ffffff;fill-opacity:1;fill-rule:nonzero;stroke:none;stroke-width:0.22626942"
         id="path835"
         inkscape:connector-curvature="0" />
      <path
         d="m 237.7356,-19.532792 -25.43314,-64.280879 v 64.280879 h -13.2836 V -125.75723 h 11.16413 l 25.43495,64.285401 v -64.285401 h 13.42411 v 106.224438 z"
         style="fill:none;stroke:#181a21;stroke-width:0.22626942;stroke-linecap:butt;stroke-linejoin:miter;stroke-miterlimit:2;stroke-dasharray:none;stroke-opacity:1"
         id="path837"
         inkscape:connector-curvature="0" />
      <path
         d="m 270.44284,-49.798589 c 0,8.505467 1.83278,12.542114 4.24029,14.560437 2.39846,2.013798 5.08654,2.160873 7.20442,2.160873 1.83731,0 4.80143,-0.147075 7.20894,-2.160873 2.39846,-2.018323 4.23576,-6.05497 4.23576,-14.560437 v -45.688322 c 0,-8.215839 -1.8373,-12.539849 -4.23576,-14.555909 -2.40751,-2.02285 -5.37163,-2.02285 -7.20894,-2.02285 -2.11788,0 -4.80596,0 -7.20442,2.02285 -2.40751,2.01606 -4.24029,6.34007 -4.24029,14.555909 z m -13.28677,-45.688322 c 0,-9.369819 1.98235,-16.719049 5.9398,-21.909669 1.55447,-1.87125 3.67462,-3.89183 6.7813,-5.62053 3.1112,-1.58841 6.92384,-2.74012 12.01038,-2.74012 10.17307,0 15.82528,4.46882 18.79167,8.36065 3.95745,5.19062 5.93505,12.53985 5.93505,21.909669 v 45.688322 c 0,9.372079 -1.9776,16.72131 -5.93505,21.91193 -2.96639,3.885046 -8.6186,8.353867 -18.79167,8.353867 -10.03279,0 -15.82755,-4.468821 -18.79168,-8.353867 -3.95745,-5.19062 -5.9398,-12.539851 -5.9398,-21.91193 v -45.688322"
         style="fill:#ffffff;fill-opacity:1;fill-rule:nonzero;stroke:none;stroke-width:0.22626942"
         id="path839"
         inkscape:connector-curvature="0" />
      <path
         d="m 270.44284,-49.798589 c 0,8.505467 1.83278,12.542114 4.24029,14.560437 2.39846,2.013798 5.08654,2.160873 7.20442,2.160873 1.83731,0 4.80143,-0.147075 7.20894,-2.160873 2.39846,-2.018323 4.23576,-6.05497 4.23576,-14.560437 v -45.688322 c 0,-8.215839 -1.8373,-12.539849 -4.23576,-14.555909 -2.40751,-2.02285 -5.37163,-2.02285 -7.20894,-2.02285 -2.11788,0 -4.80596,0 -7.20442,2.02285 -2.40751,2.01606 -4.24029,6.34007 -4.24029,14.555909 z m -13.28677,-45.688322 c 0,-9.369819 1.98235,-16.719049 5.9398,-21.909669 1.55447,-1.87125 3.67462,-3.89183 6.7813,-5.62053 3.1112,-1.58841 6.92384,-2.74012 12.01038,-2.74012 10.17307,0 15.82528,4.46882 18.79167,8.36065 3.95745,5.19062 5.93505,12.53985 5.93505,21.909669 v 45.688322 c 0,9.372079 -1.9776,16.72131 -5.93505,21.91193 -2.96639,3.885046 -8.6186,8.353867 -18.79167,8.353867 -10.03279,0 -15.82755,-4.468821 -18.79168,-8.353867 -3.95745,-5.19062 -5.9398,-12.539851 -5.9398,-21.91193 z"
         style="fill:none;stroke:#181a21;stroke-width:0.22626942;stroke-linecap:butt;stroke-linejoin:miter;stroke-miterlimit:2;stroke-dasharray:none;stroke-opacity:1"
         id="path841"
         inkscape:connector-curvature="0" />
      <path
         d="m 353.11716,-19.532792 -25.43947,-64.280879 v 64.280879 H 314.39568 V -125.75723 h 11.16639 l 25.43268,64.285401 v -64.285401 h 13.42683 v 106.224438 h -11.30442"
         style="fill:#ffffff;fill-opacity:1;fill-rule:nonzero;stroke:none;stroke-width:0.22626942"
         id="path843"
         inkscape:connector-curvature="0" />
      <path
         d="m 353.11716,-19.532792 -25.43947,-64.280879 v 64.280879 H 314.39568 V -125.75723 h 11.16639 l 25.43268,64.285401 v -64.285401 h 13.42683 v 106.224438 z"
         style="fill:none;stroke:#181a21;stroke-width:0.22626942;stroke-linecap:butt;stroke-linejoin:miter;stroke-miterlimit:2;stroke-dasharray:none;stroke-opacity:1"
         id="path845"
         inkscape:connector-curvature="0" />
      <path
         d="m 404.61608,-86.696344 21.19466,-38.916076 h 15.25961 l -29.81552,54.770775 v 51.455928 h -13.28202 v -51.455928 l -29.67297,-54.770775 h 15.25961 l 21.05663,38.916076"
         style="fill:#ffffff;fill-opacity:1;fill-rule:nonzero;stroke:none;stroke-width:0.22626942"
         id="path847"
         inkscape:connector-curvature="0" />
      <path
         d="m 404.61608,-86.696344 21.19466,-38.916076 h 15.25961 l -29.81552,54.770775 v 51.455928 h -13.28202 v -51.455928 l -29.67297,-54.770775 h 15.25961 z"
         style="fill:none;stroke:#181a21;stroke-width:0.22626942;stroke-linecap:butt;stroke-linejoin:miter;stroke-miterlimit:2;stroke-dasharray:none;stroke-opacity:1"
         id="path849"
         inkscape:connector-curvature="0" />
      <path
         d="m 528.8742,-49.798589 c 0,8.505467 1.84183,12.542114 4.24255,14.560437 2.40298,2.013798 5.08653,2.160873 7.20894,2.160873 1.83278,0 4.79918,-0.147075 7.20216,-2.160873 2.40524,-2.018323 4.24255,-6.05497 4.24255,-14.560437 v -45.688322 c 0,-8.215839 -1.83731,-12.539849 -4.24255,-14.555909 -2.40298,-2.02285 -5.36938,-2.02285 -7.20216,-2.02285 -2.12241,0 -4.80596,0 -7.20894,2.02285 -2.40072,2.01606 -4.24255,6.34007 -4.24255,14.555909 z m -13.27976,-45.688322 c 0,-9.369819 1.97986,-16.719049 5.93958,-21.909669 1.55447,-1.87125 3.66782,-3.89183 6.77903,-5.62053 3.1112,-1.58841 6.92837,-2.74012 12.01264,-2.74012 10.17307,0 15.82528,4.46882 18.78941,8.36065 3.95972,5.19062 5.93505,12.53985 5.93505,21.909669 v 45.688322 c 0,9.372079 -1.97533,16.72131 -5.93505,21.91193 -2.96413,3.885046 -8.61634,8.353867 -18.78941,8.353867 -10.03279,0 -15.82754,-4.468821 -18.79167,-8.353867 -3.95972,-5.19062 -5.93958,-12.539851 -5.93958,-21.91193 v -45.688322"
         style="fill:#ffffff;fill-opacity:1;fill-rule:nonzero;stroke:none;stroke-width:0.22626942"
         id="path851"
         inkscape:connector-curvature="0" />
      <path
         d="m 528.8742,-49.798589 c 0,8.505467 1.84183,12.542114 4.24255,14.560437 2.40298,2.013798 5.08653,2.160873 7.20894,2.160873 1.83278,0 4.79918,-0.147075 7.20216,-2.160873 2.40524,-2.018323 4.24255,-6.05497 4.24255,-14.560437 v -45.688322 c 0,-8.215839 -1.83731,-12.539849 -4.24255,-14.555909 -2.40298,-2.02285 -5.36938,-2.02285 -7.20216,-2.02285 -2.12241,0 -4.80596,0 -7.20894,2.02285 -2.40072,2.01606 -4.24255,6.34007 -4.24255,14.555909 z m -13.27976,-45.688322 c 0,-9.369819 1.97986,-16.719049 5.93958,-21.909669 1.55447,-1.87125 3.66782,-3.89183 6.77903,-5.62053 3.1112,-1.58841 6.92837,-2.74012 12.01264,-2.74012 10.17307,0 15.82528,4.46882 18.78941,8.36065 3.95972,5.19062 5.93505,12.53985 5.93505,21.909669 v 45.688322 c 0,9.372079 -1.97533,16.72131 -5.93505,21.91193 -2.96413,3.885046 -8.61634,8.353867 -18.78941,8.353867 -10.03279,0 -15.82754,-4.468821 -18.79167,-8.353867 -3.95972,-5.19062 -5.93958,-12.539851 -5.93958,-21.91193 z"
         style="fill:none;stroke:#181a21;stroke-width:0.22626942;stroke-linecap:butt;stroke-linejoin:miter;stroke-miterlimit:2;stroke-dasharray:none;stroke-opacity:1"
         id="path853"
         inkscape:connector-curvature="0" />
      <path
         d="m 471.10082,-19.532792 -14.41109,-50.874416 v 50.874416 H 443.40997 V -125.75723 h 11.72302 l 21.0589,74.806929 20.91182,-74.806929 h 11.7298 v 106.224438 h -13.28654 v -50.874416 l -14.4111,50.874416 h -10.03505"
         style="fill:#ffffff;fill-opacity:1;fill-rule:nonzero;stroke:none;stroke-width:0.22626942"
         id="path855"
         inkscape:connector-curvature="0" />
      <path
         d="m 471.10082,-19.532792 -14.41109,-50.874416 v 50.874416 H 443.40997 V -125.75723 h 11.72302 l 21.0589,74.806929 20.91182,-74.806929 h 11.7298 v 106.224438 h -13.28654 v -50.874416 l -14.4111,50.874416 z"
         style="fill:none;stroke:#181a21;stroke-width:0.22626942;stroke-linecap:butt;stroke-linejoin:miter;stroke-miterlimit:2;stroke-dasharray:none;stroke-opacity:1"
         id="path857"
         inkscape:connector-curvature="0" />
      <path
         d="m 572.83382,-125.75723 h 13.27523 v 77.976964 c 0,7.353756 1.55899,11.098515 3.67687,12.827213 2.12015,1.875774 4.52087,1.875774 6.35817,1.875774 1.83957,0 4.24029,0 6.36496,-1.875774 2.11788,-1.728698 3.66783,-5.473457 3.66783,-12.827213 v -77.976964 h 13.28428 v 77.976964 c 0,8.790567 -1.83731,15.565073 -5.65221,20.321256 -2.82837,3.894097 -8.19774,7.926218 -17.66486,7.926218 -9.46485,0 -14.83874,-4.032121 -17.66259,-7.926218 -3.81037,-4.756183 -5.64768,-11.530689 -5.64768,-20.321256 v -77.976964"
         style="fill:#ffffff;fill-opacity:1;fill-rule:nonzero;stroke:none;stroke-width:0.22626942"
         id="path859"
         inkscape:connector-curvature="0" />
      <path
         d="m 572.83382,-125.75723 h 13.27523 v 77.976964 c 0,7.353756 1.55899,11.098515 3.67687,12.827213 2.12015,1.875774 4.52087,1.875774 6.35817,1.875774 1.83957,0 4.24029,0 6.36496,-1.875774 2.11788,-1.728698 3.66783,-5.473457 3.66783,-12.827213 v -77.976964 h 13.28428 v 77.976964 c 0,8.790567 -1.83731,15.565073 -5.65221,20.321256 -2.82837,3.894097 -8.19774,7.926218 -17.66486,7.926218 -9.46485,0 -14.83874,-4.032121 -17.66259,-7.926218 -3.81037,-4.756183 -5.64768,-11.530689 -5.64768,-20.321256 z"
         style="fill:none;stroke:#181a21;stroke-width:0.22626942;stroke-linecap:butt;stroke-linejoin:miter;stroke-miterlimit:2;stroke-dasharray:none;stroke-opacity:1"
         id="path861"
         inkscape:connector-curvature="0" />
      <path
         d="m 627.50504,-56.430546 h 13.28427 v 6.776769 c 0,6.199782 1.13135,10.664078 3.24697,13.404201 0.42539,0.724062 1.2739,1.296523 2.54553,2.01606 1.2739,0.721799 3.10894,1.156237 5.79476,1.156237 5.08654,0 7.9149,-2.59531 9.61193,-5.765345 1.55673,-3.172297 1.83504,-7.206681 1.83504,-10.089353 0,-5.045809 -1.69249,-8.360656 -4.09774,-10.813416 -2.40298,-2.303423 -5.65221,-3.887309 -8.62086,-5.186095 l -2.54553,-1.153974 c -2.9664,-1.296524 -8.05293,-3.45966 -12.5738,-7.928481 -5.65221,-5.622795 -8.48057,-12.682401 -8.48057,-21.330418 0,-9.080189 2.40298,-16.721309 6.92384,-22.052219 4.38058,-5.18836 10.59393,-8.36065 17.94769,-8.36065 10.16855,0 15.82981,4.46882 18.7962,8.36065 4.09095,5.33091 6.07534,12.6824 6.07534,22.052219 v 6.774507 h -13.42457 v -6.774507 c 0,-8.215839 -1.83504,-12.682399 -4.24255,-14.698459 -2.40072,-2.02285 -5.3739,-2.02285 -7.20442,-2.02285 -5.5074,0 -8.20227,3.02975 -9.74995,6.77677 -1.69249,3.74702 -1.83731,8.073291 -1.83731,9.944539 0,5.048071 1.69702,8.360655 4.10001,10.953703 2.40071,2.59531 5.65221,4.468821 9.03946,5.767607 l 2.26722,1.006899 c 2.68129,1.153974 7.7633,3.025222 12.28869,7.496306 5.79023,5.47572 8.76342,12.537589 8.76342,21.187869 0,16.286872 -8.90371,29.399185 -24.87154,29.399185 -16.53803,0 -24.87153,-11.093989 -24.87153,-30.120985 v -6.776769"
         style="fill:#ffffff;fill-opacity:1;fill-rule:nonzero;stroke:none;stroke-width:0.22626942"
         id="path863"
         inkscape:connector-curvature="0" />
      <path
         d="m 627.50504,-56.430546 h 13.28427 v 6.776769 c 0,6.199782 1.13135,10.664078 3.24697,13.404201 0.42539,0.724062 1.2739,1.296523 2.54553,2.01606 1.2739,0.721799 3.10894,1.156237 5.79476,1.156237 5.08654,0 7.9149,-2.59531 9.61193,-5.765345 1.55673,-3.172297 1.83504,-7.206681 1.83504,-10.089353 0,-5.045809 -1.69249,-8.360656 -4.09774,-10.813416 -2.40298,-2.303423 -5.65221,-3.887309 -8.62086,-5.186095 l -2.54553,-1.153974 c -2.9664,-1.296524 -8.05293,-3.45966 -12.5738,-7.928481 -5.65221,-5.622795 -8.48057,-12.682401 -8.48057,-21.330418 0,-9.080189 2.40298,-16.721309 6.92384,-22.052219 4.38058,-5.18836 10.59393,-8.36065 17.94769,-8.36065 10.16855,0 15.82981,4.46882 18.7962,8.36065 4.09095,5.33091 6.07534,12.6824 6.07534,22.052219 v 6.774507 h -13.42457 v -6.774507 c 0,-8.215839 -1.83504,-12.682399 -4.24255,-14.698459 -2.40072,-2.02285 -5.3739,-2.02285 -7.20442,-2.02285 -5.5074,0 -8.20227,3.02975 -9.74995,6.77677 -1.69249,3.74702 -1.83731,8.073291 -1.83731,9.944539 0,5.048071 1.69702,8.360655 4.10001,10.953703 2.40071,2.59531 5.65221,4.468821 9.03946,5.767607 l 2.26722,1.006899 c 2.68129,1.153974 7.7633,3.025222 12.28869,7.496306 5.79023,5.47572 8.76342,12.537589 8.76342,21.187869 0,16.286872 -8.90371,29.399185 -24.87154,29.399185 -16.53803,0 -24.87153,-11.093989 -24.87153,-30.120985 z"
         style="fill:none;stroke:#181a21;stroke-width:0.22626942;stroke-linecap:butt;stroke-linejoin:miter;stroke-miterlimit:2;stroke-dasharray:none;stroke-opacity:1"
         id="path865"
         inkscape:connector-curvature="0" />
      <path
         d="m 267.81133,99.436954 c 0,8.470166 1.86672,12.488266 4.3059,14.497306 2.44145,2.01154 5.17026,2.15386 7.32208,2.15386 1.86673,0 4.88063,-0.14232 7.32208,-2.15386 2.44145,-2.00904 4.30591,-6.02714 4.30591,-14.497306 V 53.926028 c 0,-8.182128 -1.86446,-12.488262 -4.30591,-14.497308 -2.44145,-2.011535 -5.45535,-2.011535 -7.32208,-2.011535 -2.15182,0 -4.88063,0 -7.32208,2.011535 -2.43918,2.009046 -4.3059,6.31518 -4.3059,14.497308 z M 254.31707,53.926028 c 0,-9.329314 2.00905,-16.651167 6.02963,-21.81916 1.57936,-1.864913 3.73344,-3.876674 6.8899,-5.600168 3.15872,-1.577777 7.03472,-2.726773 12.20271,-2.726773 10.33825,0 16.07871,4.450267 19.09488,8.326941 4.01854,5.167993 6.02782,12.489846 6.02782,21.81916 v 45.510926 c 0,9.331806 -2.00928,16.651166 -6.02782,21.820066 -3.01617,3.87577 -8.75663,8.32604 -19.09488,8.32604 -10.19117,0 -16.0787,-4.45027 -19.09261,-8.32604 -4.02058,-5.1689 -6.02963,-12.48826 -6.02963,-21.820066 V 53.926028"
         style="fill:#ffffff;fill-opacity:1;fill-rule:nonzero;stroke:none;stroke-width:0.22626942"
         id="path867"
         inkscape:connector-curvature="0" />
      <path
         d="m 267.81133,99.436954 c 0,8.470166 1.86672,12.488266 4.3059,14.497306 2.44145,2.01154 5.17026,2.15386 7.32208,2.15386 1.86673,0 4.88063,-0.14232 7.32208,-2.15386 2.44145,-2.00904 4.30591,-6.02714 4.30591,-14.497306 V 53.926028 c 0,-8.182128 -1.86446,-12.488262 -4.30591,-14.497308 -2.44145,-2.011535 -5.45535,-2.011535 -7.32208,-2.011535 -2.15182,0 -4.88063,0 -7.32208,2.011535 -2.43918,2.009046 -4.3059,6.31518 -4.3059,14.497308 z M 254.31707,53.926028 c 0,-9.329314 2.00905,-16.651167 6.02963,-21.81916 1.57936,-1.864913 3.73344,-3.876674 6.8899,-5.600168 3.15872,-1.577777 7.03472,-2.726773 12.20271,-2.726773 10.33825,0 16.07871,4.450267 19.09488,8.326941 4.01854,5.167993 6.02782,12.489846 6.02782,21.81916 v 45.510926 c 0,9.331806 -2.00928,16.651166 -6.02782,21.820066 -3.01617,3.87577 -8.75663,8.32604 -19.09488,8.32604 -10.19117,0 -16.0787,-4.45027 -19.09261,-8.32604 -4.02058,-5.1689 -6.02963,-12.48826 -6.02963,-21.820066 z"
         style="fill:none;stroke:#181a21;stroke-width:0.22626942;stroke-linecap:butt;stroke-linejoin:miter;stroke-miterlimit:2;stroke-dasharray:none;stroke-opacity:1"
         id="path869"
         inkscape:connector-curvature="0" />
      <path
         d="M 326.41058,129.72628 H 312.91814 V 23.924966 h 13.49244 V 129.72628"
         style="fill:#ffffff;fill-opacity:1;fill-rule:nonzero;stroke:none;stroke-width:0.22626942"
         id="path871"
         inkscape:connector-curvature="0" />
      <path
         d="M 326.41058,129.72628 H 312.91814 V 23.924966 h 13.49244 z"
         style="fill:none;stroke:#181a21;stroke-width:0.22626942;stroke-linecap:butt;stroke-linejoin:miter;stroke-miterlimit:2;stroke-dasharray:none;stroke-opacity:1"
         id="path873"
         inkscape:connector-curvature="0" />
      <path
         d="m 436.46576,23.924966 v 13.492219 h -30.29068 v 32.589811 h 30.29068 v 13.494029 h -30.29068 v 32.730325 h 30.29068 v 13.49493 H 392.68037 V 23.924966 h 43.78539"
         style="fill:#ffffff;fill-opacity:1;fill-rule:nonzero;stroke:none;stroke-width:0.22626942"
         id="path875"
         inkscape:connector-curvature="0" />
      <path
         d="m 436.46576,23.924966 v 13.492219 h -30.29068 v 32.589811 h 30.29068 v 13.494029 h -30.29068 v 32.730325 h 30.29068 v 13.49493 H 392.68037 V 23.924966 Z"
         style="fill:none;stroke:#181a21;stroke-width:0.22626942;stroke-linecap:butt;stroke-linejoin:miter;stroke-miterlimit:2;stroke-dasharray:none;stroke-opacity:1"
         id="path877"
         inkscape:connector-curvature="0" />
      <path
         d="M 488.95801,129.58306 H 442.87824 V 23.779927 h 13.49245 v 92.308193 h 32.58732 v 13.49494"
         style="fill:#ffffff;fill-opacity:1;fill-rule:nonzero;stroke:none;stroke-width:0.22626942"
         id="path879"
         inkscape:connector-curvature="0" />
      <path
         d="M 488.95801,129.58306 H 442.87824 V 23.779927 h 13.49245 v 92.308193 h 32.58732 z"
         style="fill:none;stroke:#181a21;stroke-width:0.22626942;stroke-linecap:butt;stroke-linejoin:miter;stroke-miterlimit:2;stroke-dasharray:none;stroke-opacity:1"
         id="path881"
         inkscape:connector-curvature="0" />
      <path
         d="m 536.48364,23.924966 v 13.492219 h -30.28843 v 32.589811 h 30.28843 v 13.494029 h -30.28843 v 32.730325 h 30.28843 v 13.49493 H 492.70277 V 23.924966 h 43.78087"
         style="fill:#ffffff;fill-opacity:1;fill-rule:nonzero;stroke:none;stroke-width:0.22626942"
         id="path883"
         inkscape:connector-curvature="0" />
      <path
         d="m 536.48364,23.924966 v 13.492219 h -30.28843 v 32.589811 h 30.28843 v 13.494029 h -30.28843 v 32.730325 h 30.28843 v 13.49493 H 492.70277 V 23.924966 Z"
         style="fill:none;stroke:#181a21;stroke-width:0.22626942;stroke-linecap:butt;stroke-linejoin:miter;stroke-miterlimit:2;stroke-dasharray:none;stroke-opacity:1"
         id="path885"
         inkscape:connector-curvature="0" />
      <path
         d="m 540.97508,92.832829 h 13.49471 v 6.747354 c 0,6.171947 1.14945,10.620637 3.30127,13.351707 0.42992,0.71773 1.292,1.28951 2.58626,2.00723 1.28974,0.71954 3.15646,1.149 5.88301,1.149 5.17025,0 8.04161,-2.58354 9.76126,-5.74249 1.58162,-3.15895 1.86899,-7.17704 1.86899,-10.04863 0,-5.022951 -1.72191,-8.326937 -4.16336,-10.765442 -2.44371,-2.298898 -5.74498,-3.876674 -8.75889,-5.167994 l -2.584,-1.149901 c -3.01391,-1.294035 -8.17964,-3.446083 -12.77743,-7.89635 -5.74046,-5.598585 -8.61182,-12.633075 -8.61182,-21.247378 0,-9.043536 2.43919,-16.65275 7.03472,-21.963067 4.45072,-5.168899 10.7659,-8.326941 18.23053,-8.326941 10.33598,0 16.08097,4.450267 19.09487,8.326941 4.16336,5.310317 6.1749,12.632169 6.1749,21.963067 v 6.75007 h -13.63952 v -6.75007 c 0,-8.181902 -1.86899,-12.632169 -4.30817,-14.641215 -2.43919,-2.011535 -5.4531,-2.011535 -7.32208,-2.011535 -5.59565,0 -8.32672,3.013909 -9.90381,6.749164 -1.72418,3.731635 -1.86673,8.039579 -1.86673,9.903586 0,5.028386 1.72418,8.326941 4.16336,10.911391 2.43918,2.586259 5.74045,4.450267 9.1888,5.742491 l 2.2989,1.006673 c 2.72654,1.145602 7.89228,3.013909 12.48781,7.462592 5.88753,5.455129 8.90144,12.489845 8.90144,21.103918 0,16.22149 -9.04625,29.28606 -25.26977,29.28606 -16.79372,0 -25.26525,-11.05553 -25.26525,-30.002877 v -6.747354"
         style="fill:#ffffff;fill-opacity:1;fill-rule:nonzero;stroke:none;stroke-width:0.22626942"
         id="path887"
         inkscape:connector-curvature="0" />
      <path
         d="m 540.97508,92.832829 h 13.49471 v 6.747354 c 0,6.171947 1.14945,10.620637 3.30127,13.351707 0.42992,0.71773 1.292,1.28951 2.58626,2.00723 1.28974,0.71954 3.15646,1.149 5.88301,1.149 5.17025,0 8.04161,-2.58354 9.76126,-5.74249 1.58162,-3.15895 1.86899,-7.17704 1.86899,-10.04863 0,-5.022951 -1.72191,-8.326937 -4.16336,-10.765442 -2.44371,-2.298898 -5.74498,-3.876674 -8.75889,-5.167994 l -2.584,-1.149901 c -3.01391,-1.294035 -8.17964,-3.446083 -12.77743,-7.89635 -5.74046,-5.598585 -8.61182,-12.633075 -8.61182,-21.247378 0,-9.043536 2.43919,-16.65275 7.03472,-21.963067 4.45072,-5.168899 10.7659,-8.326941 18.23053,-8.326941 10.33598,0 16.08097,4.450267 19.09487,8.326941 4.16336,5.310317 6.1749,12.632169 6.1749,21.963067 v 6.75007 h -13.63952 v -6.75007 c 0,-8.181902 -1.86899,-12.632169 -4.30817,-14.641215 -2.43919,-2.011535 -5.4531,-2.011535 -7.32208,-2.011535 -5.59565,0 -8.32672,3.013909 -9.90381,6.749164 -1.72418,3.731635 -1.86673,8.039579 -1.86673,9.903586 0,5.028386 1.72418,8.326941 4.16336,10.911391 2.43918,2.586259 5.74045,4.450267 9.1888,5.742491 l 2.2989,1.006673 c 2.72654,1.145602 7.89228,3.013909 12.48781,7.462592 5.88753,5.455129 8.90144,12.489845 8.90144,21.103918 0,16.22149 -9.04625,29.28606 -25.26977,29.28606 -16.79372,0 -25.26525,-11.05553 -25.26525,-30.002877 z"
         style="fill:none;stroke:#181a21;stroke-width:0.22626942;stroke-linecap:butt;stroke-linejoin:miter;stroke-miterlimit:2;stroke-dasharray:none;stroke-opacity:1"
         id="path889"
         inkscape:connector-curvature="0" />
      <path
         d="m 597.97009,92.832829 h 13.49244 v 6.747354 c 0,6.171947 1.14719,10.620637 3.30127,13.351707 0.42992,0.71773 1.29427,1.28951 2.58626,2.00723 1.28748,0.71954 3.15873,1.149 5.88527,1.149 5.16573,0 8.03935,-2.58354 9.76353,-5.74249 1.5771,-3.15895 1.86446,-7.17704 1.86446,-10.04863 0,-5.022951 -1.72418,-8.326937 -4.16336,-10.765442 -2.43918,-2.298898 -5.74046,-3.876674 -8.75663,-5.167994 l -2.58399,-1.149901 c -3.01391,-1.294035 -8.18417,-3.446083 -12.77517,-7.89635 -5.74499,-5.598585 -8.61408,-12.633075 -8.61408,-21.247378 0,-9.043536 2.43918,-16.65275 7.03245,-21.963067 4.44846,-5.168899 10.76816,-8.326941 18.23279,-8.326941 10.33599,0 16.07871,4.450267 19.09262,8.326941 4.16109,5.310317 6.17263,12.632169 6.17263,21.963067 v 6.75007 h -13.63726 v -6.75007 c 0,-8.181902 -1.86446,-12.632169 -4.30591,-14.641215 -2.44371,-2.011535 -5.45762,-2.011535 -7.32208,-2.011535 -5.5979,0 -8.32671,3.013909 -9.90381,6.749164 -1.72644,3.731635 -1.86899,8.039579 -1.86899,9.903586 0,5.028386 1.72191,8.326941 4.1611,10.911391 2.44597,2.586259 5.74498,4.450267 9.1888,5.742491 l 2.2989,1.006673 c 2.72654,1.145602 7.8968,3.013909 12.49007,7.462592 5.88527,5.455129 8.89918,12.489845 8.89918,21.103918 0,16.22149 -9.04173,29.28606 -25.26525,29.28606 -16.79824,0 -25.26524,-11.05553 -25.26524,-30.002877 v -6.747354"
         style="fill:#ffffff;fill-opacity:1;fill-rule:nonzero;stroke:none;stroke-width:0.22626942"
         id="path891"
         inkscape:connector-curvature="0" />
      <path
         d="m 597.97009,92.832829 h 13.49244 v 6.747354 c 0,6.171947 1.14719,10.620637 3.30127,13.351707 0.42992,0.71773 1.29427,1.28951 2.58626,2.00723 1.28748,0.71954 3.15873,1.149 5.88527,1.149 5.16573,0 8.03935,-2.58354 9.76353,-5.74249 1.5771,-3.15895 1.86446,-7.17704 1.86446,-10.04863 0,-5.022951 -1.72418,-8.326937 -4.16336,-10.765442 -2.43918,-2.298898 -5.74046,-3.876674 -8.75663,-5.167994 l -2.58399,-1.149901 c -3.01391,-1.294035 -8.18417,-3.446083 -12.77517,-7.89635 -5.74499,-5.598585 -8.61408,-12.633075 -8.61408,-21.247378 0,-9.043536 2.43918,-16.65275 7.03245,-21.963067 4.44846,-5.168899 10.76816,-8.326941 18.23279,-8.326941 10.33599,0 16.07871,4.450267 19.09262,8.326941 4.16109,5.310317 6.17263,12.632169 6.17263,21.963067 v 6.75007 h -13.63726 v -6.75007 c 0,-8.181902 -1.86446,-12.632169 -4.30591,-14.641215 -2.44371,-2.011535 -5.45762,-2.011535 -7.32208,-2.011535 -5.5979,0 -8.32671,3.013909 -9.90381,6.749164 -1.72644,3.731635 -1.86899,8.039579 -1.86899,9.903586 0,5.028386 1.72191,8.326941 4.1611,10.911391 2.44597,2.586259 5.74498,4.450267 9.1888,5.742491 l 2.2989,1.006673 c 2.72654,1.145602 7.8968,3.013909 12.49007,7.462592 5.88527,5.455129 8.89918,12.489845 8.89918,21.103918 0,16.22149 -9.04173,29.28606 -25.26525,29.28606 -16.79824,0 -25.26524,-11.05553 -25.26524,-30.002877 z"
         style="fill:none;stroke:#181a21;stroke-width:0.22626942;stroke-linecap:butt;stroke-linejoin:miter;stroke-miterlimit:2;stroke-dasharray:none;stroke-opacity:1"
         id="path893"
         inkscape:connector-curvature="0" />
      <path
         d="m 335.71025,54.39169 c 0,-9.263696 1.9957,-16.536221 5.98709,-21.668012 2.99581,-3.848164 8.6978,-8.267658 18.96138,-8.267658 10.26358,0 15.82302,4.419494 18.81883,8.267658 4.13168,5.275019 6.12964,12.404316 6.12964,21.668012 v 6.699838 H 372.0627 V 54.39169 c 0,-8.122619 -1.85315,-12.544602 -4.13394,-14.53781 -2.42335,-1.998411 -5.41689,-1.998411 -7.27004,-1.998411 -2.13825,0 -4.84669,0 -7.27004,1.998411 -2.42334,1.993208 -4.27649,6.415191 -4.27649,14.53781 v 45.050695 c 0,6.129635 1.1404,10.691225 3.27865,13.399225 0.42765,0.71252 1.28294,1.42572 2.56589,2.13824 1.28295,0.7123 3.1361,1.14266 5.70199,1.14266 5.13179,0 7.12749,-1.99841 8.26789,-3.2809 2.13824,-2.85122 3.13609,-7.26959 3.13609,-13.399225 v -6.700743 h 13.54449 v 6.700743 c 0,9.265505 -1.99796,16.392995 -6.12964,21.669595 -2.99581,3.84839 -8.55525,8.40998 -18.81883,8.40998 -5.13179,0 -8.98063,-1.14017 -12.11673,-2.85031 -3.13609,-1.57077 -5.27434,-3.70879 -6.84465,-5.55967 -3.99139,-5.13428 -5.98709,-12.40409 -5.98709,-21.669595 V 54.39169"
         style="fill:#ffffff;fill-opacity:1;fill-rule:nonzero;stroke:none;stroke-width:0.22626942"
         id="path895"
         inkscape:connector-curvature="0" />
      <path
         d="m 335.71025,54.39169 c 0,-9.263696 1.9957,-16.536221 5.98709,-21.668012 2.99581,-3.848164 8.6978,-8.267658 18.96138,-8.267658 10.26358,0 15.82302,4.419494 18.81883,8.267658 4.13168,5.275019 6.12964,12.404316 6.12964,21.668012 v 6.699838 H 372.0627 V 54.39169 c 0,-8.122619 -1.85315,-12.544602 -4.13394,-14.53781 -2.42335,-1.998411 -5.41689,-1.998411 -7.27004,-1.998411 -2.13825,0 -4.84669,0 -7.27004,1.998411 -2.42334,1.993208 -4.27649,6.415191 -4.27649,14.53781 v 45.050695 c 0,6.129635 1.1404,10.691225 3.27865,13.399225 0.42765,0.71252 1.28294,1.42572 2.56589,2.13824 1.28295,0.7123 3.1361,1.14266 5.70199,1.14266 5.13179,0 7.12749,-1.99841 8.26789,-3.2809 2.13824,-2.85122 3.13609,-7.26959 3.13609,-13.399225 v -6.700743 h 13.54449 v 6.700743 c 0,9.265505 -1.99796,16.392995 -6.12964,21.669595 -2.99581,3.84839 -8.55525,8.40998 -18.81883,8.40998 -5.13179,0 -8.98063,-1.14017 -12.11673,-2.85031 -3.13609,-1.57077 -5.27434,-3.70879 -6.84465,-5.55967 -3.99139,-5.13428 -5.98709,-12.40409 -5.98709,-21.669595 z"
         style="fill:none;stroke:#181a21;stroke-width:0.22626942;stroke-linecap:butt;stroke-linejoin:miter;stroke-miterlimit:2;stroke-dasharray:none;stroke-opacity:1"
         id="path897"
         inkscape:connector-curvature="0" />
      <path
         d="m 351.81611,-6.7689338 v 0.5973513 h 1.28295 c 1.28295,0 2.35094,1.0272632 2.35094,2.353202 0,1.2806849 -1.06799,2.3509393 -2.35094,2.3509393 h -1.28295 V 13.635816 c 0,1.278875 -1.025,2.351166 -2.3532,2.351166 -1.32368,0 -2.35094,-1.072291 -2.35094,-2.351166 V -1.4674412 h -1.11098 c -1.3282,0 -2.39846,-1.0702544 -2.39846,-2.3509393 0,-1.3259388 1.07026,-2.353202 2.39846,-2.353202 h 1.11098 v -0.5973513 c 0,-1.5861486 0.1697,-2.9550786 0.81005,-4.1927722 0.59961,-1.282948 1.79884,-2.26722 3.08405,-2.65414 0.8553,-0.255685 1.6676,-0.339405 2.56363,-0.339405 1.28521,0 2.3532,1.067992 2.3532,2.353202 0,1.323677 -1.06799,2.3916682 -2.3532,2.3916682 -0.55662,0 -0.94128,0.042991 -1.11098,0.1289736 -0.17197,0.045254 -0.21496,0.085982 -0.25795,0.1289735 -0.0407,0 -0.38466,0.5973513 -0.38466,2.1834999"
         style="fill:#ffffff;fill-opacity:1;fill-rule:nonzero;stroke:none;stroke-width:0.22626942"
         id="path899"
         inkscape:connector-curvature="0" />
      <path
         d="m 361.85569,5.3772087 c 0,1.8400229 0.55662,3.3372477 1.53863,4.5339866 1.07025,1.0279417 2.48217,1.5838857 4.10905,1.5838857 1.49564,0 2.86457,-0.555944 3.93483,-1.5838857 1.06799,-1.1967389 1.6676,-2.6939637 1.6676,-4.5339866 0,-1.753588 -0.59961,-3.29222 -1.6676,-4.44845679 -1.07026,-0.94128078 -2.43919,-1.62461443 -3.93483,-1.62461443 -1.62688,0 -3.0388,0.68333365 -4.10905,1.62461443 -0.98201,1.15623679 -1.53863,2.69486879 -1.53863,4.44845679 z m -1.7106,7.5277573 c -1.84183,-1.882788 -2.95282,-4.5317239 -2.95282,-7.5277573 0,-2.907562 1.11099,-5.43046607 2.95282,-7.4872551 1.92329,-2.0092724 4.40546,-3.2514916 7.35828,-3.2514916 2.82158,0 5.38748,1.2422192 7.14106,3.2514916 1.92556,2.05678903 2.99581,4.5796931 2.99581,7.4872551 0,2.9960334 -1.07025,5.6449693 -2.99581,7.5277573 -1.75358,2.009725 -4.31948,3.254207 -7.14106,3.254207 -2.95282,0 -5.43499,-1.244482 -7.35828,-3.254207"
         style="fill:#ffffff;fill-opacity:1;fill-rule:nonzero;stroke:none;stroke-width:0.22626942"
         id="path901"
         inkscape:connector-curvature="0" />
      <path
         d="m 395.69428,-3.0943184 c 0,1.1969653 -0.98427,2.26948231 -2.26496,2.26948231 -0.98653,0 -1.84183,0.25568444 -2.56816,0.81230722 -0.8123,0.51363158 -1.45491,1.23769377 -1.96628,2.05452637 -1.02726,1.3666673 -1.54089,2.9935444 -1.75585,3.5931584 v 8.1253351 c 0,1.241766 -1.06799,2.266993 -2.3532,2.266993 -1.23996,0 -2.26722,-1.025227 -2.26722,-2.266993 V -3.0943184 c 0,-1.2376937 1.02726,-2.2219657 2.26722,-2.2219657 1.28521,0 2.3532,0.984272 2.3532,2.2219657 v 0.303201 c 0.25795,-0.303201 0.59961,-0.6426051 0.89829,-0.8575611 1.41192,-0.9412807 3.25149,-1.7128595 5.392,-1.6676056 1.28069,0 2.26496,0.984272 2.26496,2.2219657"
         style="fill:#ffffff;fill-opacity:1;fill-rule:nonzero;stroke:none;stroke-width:0.22626942"
         id="path903"
         inkscape:connector-curvature="0" />
      <path
         d="m 422.06824,-3.0060733 c 0,1.2829476 -1.11098,2.35320197 -2.39619,2.35320197 h -1.06799 V 11.283067 c 1.32594,0 2.3532,1.065955 2.3532,2.393478 0,1.325712 -1.02726,2.350939 -2.3532,2.350939 -2.61115,0 -4.7494,-2.13802 -4.7494,-4.744417 V -0.65287133 h -1.24222 c -1.32367,0 -2.35094,-1.07025437 -2.35094,-2.35320197 0,-1.3259388 1.02727,-2.3554647 2.35094,-2.3554647 h 1.24222 v -6.199782 c 0,-1.325939 1.07026,-2.353202 2.39846,-2.353202 1.32367,0 2.35094,1.027263 2.35094,2.353202 v 6.199782 h 1.06799 c 1.28521,0 2.39619,1.0295259 2.39619,2.3554647"
         style="fill:#ffffff;fill-opacity:1;fill-rule:nonzero;stroke:none;stroke-width:0.22626942"
         id="path905"
         inkscape:connector-curvature="0" />
      <path
         d="m 431.94264,13.676545 c 0,1.325712 -1.07026,2.350939 -2.39393,2.350939 -1.07026,0 -1.96855,-0.768863 -2.26496,-1.753588 -0.0453,-0.169702 -0.0882,-0.384432 -0.0882,-0.597351 V -11.56132 c 0,-1.325939 1.07025,-2.353202 2.3532,-2.353202 1.32367,0 2.39393,1.027263 2.39393,2.353202 v 7.4420012 c 1.36893,-0.7285876 2.90982,-1.2422192 4.57969,-1.2422192 5.17478,0 9.32456,4.2357636 9.32456,9.3698167 v 9.6682663 c 0,1.325712 -1.02726,2.350939 -2.3532,2.350939 -1.32594,0 -2.3532,-1.025227 -2.3532,-2.350939 V 4.0082787 c 0,-2.522904 -2.05453,-4.57743035 -4.61816,-4.61815884 -2.52743,0.0407285 -4.53444,2.09525484 -4.57969,4.61815884 v 9.6682663"
         style="fill:#ffffff;fill-opacity:1;fill-rule:nonzero;stroke:none;stroke-width:0.22626942"
         id="path907"
         inkscape:connector-curvature="0" />
      <path
         d="m 455.29138,3.2389627 h 12.10541 c -0.42765,-1.7105968 -2.60888,-4.23576355 -6.33101,-4.5344392 -3.63389,0.1697021 -5.43047,2.7808512 -5.7744,4.5344392 z m -4.66341,2.0952548 c 0.043,-5.81964946 4.57743,-10.6957555 10.43781,-10.6957555 5.5617,0 9.96716,4.1520439 10.31109,9.9264395 0,0.040728 0,0.1289736 0,0.2149559 0,0.085982 0,0.296413 -0.0453,0.3846581 -0.12671,1.0274894 -1.025,1.7078815 -2.22423,1.7078815 h -13.60332 c 0.21496,0.9847246 0.6856,2.0984226 1.45492,2.8240687 0.89829,1.0297523 2.61114,1.7986153 4.10679,1.9260053 1.54089,0.128974 3.38046,-0.255458 4.45072,-1.070481 0.89828,-0.9412804 2.65187,-0.8104967 3.20623,-0.128973 0.55663,0.599161 0.98427,1.885277 0,2.780625 -2.09525,1.927589 -4.62042,2.823842 -7.65695,2.823842 -5.86038,-0.0405 -10.39482,-4.876106 -10.43781,-10.6932665"
         style="fill:#ffffff;fill-opacity:1;fill-rule:nonzero;stroke:none;stroke-width:0.22626942"
         id="path909"
         inkscape:connector-curvature="0" />
    </g>
  </g>
</svg>
